<mxfile host="app.diagrams.net" modified="2024-01-23T07:36:06.625Z" agent="Mozilla/5.0 (Windows NT 10.0; Win64; x64) AppleWebKit/537.36 (KHTML, like Gecko) Chrome/115.0.0.0 Safari/537.36" version="22.1.21" etag="cefLviqdKAM3Zyz4ovAt" type="github">
  <diagram name="Trang-1" id="7WOfxgdjI_dpDJdoy-7U">
    <mxGraphModel>
      <root>
        <mxCell id="0" />
        <mxCell id="1" parent="0" />
      </root>
    </mxGraphModel>
  </diagram>
</mxfile>
